<!-- Generated by IcoMoon.io -->
<svg version="1.1" xmlns="http://www.w3.org/2000/svg" width="33" height="32" viewBox="0 0 33 32">
<title>twitter</title>
<path fill="#afb1b8" d="M28.444 4.503c-0.815 0.365-1.76 0.635-2.75 0.762l-0.050 0.005c1.007-0.605 1.764-1.539 2.128-2.651l0.010-0.034c-0.887 0.535-1.919 0.943-3.019 1.165l-0.062 0.010c-0.889-0.949-2.15-1.54-3.548-1.54-2.683 0-4.858 2.175-4.858 4.858 0 0.002 0 0.004 0 0.005v-0c0 0.385 0.033 0.756 0.114 1.108-4.040-0.197-7.615-2.133-10.016-5.082-0.417 0.704-0.664 1.551-0.666 2.455v0c0 1.683 0.866 3.175 2.158 4.038-0.809-0.022-1.562-0.242-2.219-0.611l0.024 0.012v0.053c0.002 2.344 1.657 4.302 3.861 4.771l0.032 0.006c-0.369 0.101-0.794 0.159-1.231 0.159-0.015 0-0.030-0-0.045-0l0.002 0c-0.312 0-0.625-0.018-0.92-0.083 0.629 1.925 2.417 3.34 4.54 3.385-1.641 1.293-3.737 2.074-6.017 2.074-0.003 0-0.006 0-0.009 0h0c-0.014 0-0.030 0-0.046 0-0.394 0-0.781-0.025-1.162-0.074l0.045 0.005c2.094 1.367 4.657 2.181 7.41 2.181 0.016 0 0.031-0 0.047-0h-0.002c8.942 0 13.831-7.407 13.831-13.829 0-0.213-0.007-0.422-0.018-0.628 0.962-0.693 1.771-1.529 2.414-2.485l0.022-0.035z"></path>
</svg>
